<svg viewBox="16 22 292 140" xmlns="http://www.w3.org/2000/svg" role="img" aria-label="A carrier's building with its claims floor lit, each of its files drawn out to a findings document with one finding flagged amber, closed with one solid mark">
  <!-- glynloen-meta --><title>Carrier claims department review | Glynloen Insurance Consulting</title><desc>A carrier's building with its claims floor lit, each of its files drawn out to a findings document with one finding flagged amber, closed with one solid mark</desc><metadata><rdf:RDF xmlns:rdf="http://www.w3.org/1999/02/22-rdf-syntax-ns#" xmlns:dc="http://purl.org/dc/elements/1.1/"><rdf:Description rdf:about=""><dc:title>Carrier claims department review | Glynloen Insurance Consulting</dc:title><dc:description>A carrier's building with its claims floor lit, each of its files drawn out to a findings document with one finding flagged amber, closed with one solid mark</dc:description><dc:creator>Glynloen Insurance Consulting</dc:creator><dc:publisher>Glynloen Insurance Consulting</dc:publisher><dc:rights>© 2026 Glynloen Insurance Consulting. All rights reserved.</dc:rights><dc:source>https://glynloen.com/</dc:source></rdf:Description></rdf:RDF></metadata><!-- /glynloen-meta -->
  <defs>
    <filter id="glow" x="-60%" y="-60%" width="220%" height="220%"><feGaussianBlur stdDeviation="3" result="b"/><feMerge><feMergeNode in="b"/><feMergeNode in="SourceGraphic"/></feMerge></filter>
    <radialGradient id="node" cx="50%" cy="50%" r="50%"><stop offset="0%" stop-color="#eaf7ff"/><stop offset="55%" stop-color="#57c4f2"/><stop offset="100%" stop-color="#12aaeb"/></radialGradient>
  </defs>
  <style>
    .nd{transform-box:fill-box;transform-origin:center;animation-name:pls;animation-timing-function:ease-in-out;animation-iteration-count:infinite}
    @keyframes pls{0%,100%{opacity:.7;transform:scale(1)}50%{opacity:1;transform:scale(1.3)}}
    .drw{stroke-dasharray:100;stroke-dashoffset:100;animation:draw 9s linear infinite}
    @keyframes draw{0%{stroke-dashoffset:100;opacity:0}3%{opacity:.95}14%{stroke-dashoffset:0}46%{stroke-dashoffset:0;opacity:.95}56%{opacity:0}100%{stroke-dashoffset:0;opacity:0}}
    .fl{animation:flare 9s linear infinite}
    @keyframes flare{0%,12%{opacity:.15}18%{opacity:1}46%{opacity:.85}58%,100%{opacity:.15}}
    @media(prefers-reduced-motion:reduce){.nd{animation:none}.drw{animation:none;stroke-dasharray:none;stroke-dashoffset:0;opacity:.6}.fl{animation:none;opacity:.8}}
  </style>
  <g stroke="#3fb0ec" stroke-width="1.6" opacity="0.8" fill="none" stroke-linejoin="round" stroke-linecap="round"><rect x="30" y="30" width="110" height="112"/><line x1="24" y1="30" x2="146" y2="30"/><line x1="30" y1="58" x2="140" y2="58"/><line x1="30" y1="86" x2="140" y2="86"/><line x1="30" y1="114" x2="140" y2="114"/></g><g stroke="#3fb0ec" stroke-width="1.2" opacity="0.4" fill="none"><rect x="42" y="38" width="12" height="12"/><rect x="64" y="38" width="12" height="12"/><rect x="86" y="38" width="12" height="12"/><rect x="108" y="38" width="12" height="12"/><rect x="42" y="66" width="12" height="12"/><rect x="64" y="66" width="12" height="12"/><rect x="86" y="66" width="12" height="12"/><rect x="108" y="66" width="12" height="12"/><rect x="42" y="122" width="12" height="12"/><rect x="64" y="122" width="12" height="12"/><rect x="86" y="122" width="12" height="12"/><rect x="108" y="122" width="12" height="12"/></g><g stroke="#57c4f2" stroke-width="1.4" opacity="0.9" fill="#12aaeb" fill-opacity="0.18"><rect x="42" y="94" width="12" height="12"/><rect x="64" y="94" width="12" height="12"/><rect x="86" y="94" width="12" height="12"/><rect x="108" y="94" width="12" height="12"/></g><g fill="#3fb0ec" opacity="0.9"><circle cx="30" cy="30" r="2.3"/><circle cx="140" cy="30" r="2.3"/><circle cx="30" cy="142" r="2.3"/><circle cx="140" cy="142" r="2.3"/></g><g stroke="#3fb0ec" stroke-width="1.45" opacity="0.22" fill="none" stroke-linecap="round"><path d="M54 100C190 100 190 58 230 58"/><path d="M76 100C190 100 190 74 230 74"/><path d="M98 100C190 100 190 90 230 90"/><path d="M120 100C190 100 190 106 230 106"/></g><g stroke="#57c4f2" stroke-width="2.2" fill="none" stroke-linecap="round" stroke-linejoin="round"><path class="drw" pathLength="100" d="M54 100C190 100 190 58 230 58" style="animation-delay:0.0s"/><path class="drw" pathLength="100" d="M76 100C190 100 190 74 230 74" style="animation-delay:0.5s"/><path class="drw" pathLength="100" d="M98 100C190 100 190 90 230 90" style="animation-delay:1.0s"/><path class="drw" pathLength="100" d="M120 100C190 100 190 106 230 106" style="animation-delay:1.5s"/></g><g stroke="#eef2f6" stroke-width="2.6" opacity="0.95" fill="none" stroke-linecap="round" stroke-linejoin="round"><rect x="230" y="40" width="64" height="104" rx="4"/></g><g stroke="#3fb0ec" stroke-width="1.2" opacity="0.55" stroke-linecap="round"><line x1="242" y1="58" x2="282" y2="58"/><line x1="242" y1="74" x2="276" y2="74"/><line x1="242" y1="90" x2="282" y2="90"/><line x1="242" y1="106" x2="272" y2="106"/></g><g fill="url(#node)" filter="url(#glow)"><circle class="fl" cx="230" cy="58" r="4.2" style="animation-delay:0.6s"/><circle class="fl" cx="230" cy="74" r="4.2" style="animation-delay:1.1s"/><circle class="fl" cx="230" cy="90" r="4.2" style="animation-delay:1.6s"/><circle class="fl" cx="230" cy="106" r="4.2" style="animation-delay:2.1s"/></g><g stroke="#eef2f6" stroke-width="1.6" opacity="0.9" fill="none" stroke-linecap="round" stroke-linejoin="round"><line x1="242" y1="128" x2="266" y2="128"/></g><circle cx="276" cy="128" r="6" fill="#eef2f6"/>
<text x="85" y="156" font-family="Consolas,SFMono-Regular,Menlo,monospace" font-size="9" font-weight="700" letter-spacing=".16em" fill="#8fb3cf" opacity="0.85" text-anchor="middle">THE CARRIER</text><text x="262" y="156" font-family="Consolas,SFMono-Regular,Menlo,monospace" font-size="9" font-weight="700" letter-spacing=".16em" fill="#8fb3cf" opacity="0.85" text-anchor="middle">FINDINGS</text><polygon points="300,85 295,94 305,94" fill="#d9a24e" opacity="0.95"/>
</svg>
