<svg viewBox="18 22 326 140" xmlns="http://www.w3.org/2000/svg" role="img" aria-label="A carrier's practices drawn line by line to a solid examination checklist of standards, its boxes ticking in turn with one amber X, the Department's building beyond it, and one solid mark at the foot">
  <!-- glynloen-meta --><title>Market conduct examination checklist | Glynloen Insurance Consulting</title><desc>A carrier's practices drawn line by line to a solid examination checklist of standards, its boxes ticking in turn with one amber X, the Department's building beyond it, and one solid mark at the foot</desc><metadata><rdf:RDF xmlns:rdf="http://www.w3.org/1999/02/22-rdf-syntax-ns#" xmlns:dc="http://purl.org/dc/elements/1.1/"><rdf:Description rdf:about=""><dc:title>Market conduct examination checklist | Glynloen Insurance Consulting</dc:title><dc:description>A carrier's practices drawn line by line to a solid examination checklist of standards, its boxes ticking in turn with one amber X, the Department's building beyond it, and one solid mark at the foot</dc:description><dc:creator>Glynloen Insurance Consulting</dc:creator><dc:publisher>Glynloen Insurance Consulting</dc:publisher><dc:rights>© 2026 Glynloen Insurance Consulting. All rights reserved.</dc:rights><dc:source>https://glynloen.com/</dc:source></rdf:Description></rdf:RDF></metadata><!-- /glynloen-meta -->
  <defs>
    <filter id="glow" x="-60%" y="-60%" width="220%" height="220%"><feGaussianBlur stdDeviation="3" result="b"/><feMerge><feMergeNode in="b"/><feMergeNode in="SourceGraphic"/></feMerge></filter>
    <radialGradient id="node" cx="50%" cy="50%" r="50%"><stop offset="0%" stop-color="#eaf7ff"/><stop offset="55%" stop-color="#57c4f2"/><stop offset="100%" stop-color="#12aaeb"/></radialGradient>
  </defs>
  <style>
    .nd{transform-box:fill-box;transform-origin:center;animation-name:pls;animation-timing-function:ease-in-out;animation-iteration-count:infinite}
    @keyframes pls{0%,100%{opacity:.7;transform:scale(1)}50%{opacity:1;transform:scale(1.3)}}
    .drw{stroke-dasharray:100;stroke-dashoffset:100;animation:draw 9s linear infinite}
    @keyframes draw{0%{stroke-dashoffset:100;opacity:0}3%{opacity:.95}14%{stroke-dashoffset:0}46%{stroke-dashoffset:0;opacity:.95}56%{opacity:0}100%{stroke-dashoffset:0;opacity:0}}
    .fl{animation:flare 9s linear infinite}
    @keyframes flare{0%,12%{opacity:.15}18%{opacity:1}46%{opacity:.85}58%,100%{opacity:.15}}
    @media(prefers-reduced-motion:reduce){.nd{animation:none}.drw{animation:none;stroke-dasharray:none;stroke-dashoffset:0;opacity:.6}.fl{animation:none;opacity:.8}}
  </style>
  <g stroke="#3fb0ec" stroke-width="1.6" opacity="0.8" fill="none" stroke-linejoin="round" stroke-linecap="round"><polygon points="30,52 92,52 92,132 30,132"/><line x1="24" y1="52" x2="98" y2="52"/><line x1="36" y1="46" x2="86" y2="46"/><line x1="42" y1="62" x2="42" y2="132"/><line x1="60" y1="62" x2="60" y2="132"/><line x1="78" y1="62" x2="78" y2="132"/></g><g fill="#3fb0ec" opacity="0.9"><circle cx="30" cy="52" r="2.3"/><circle cx="92" cy="52" r="2.3"/><circle cx="30" cy="132" r="2.3"/><circle cx="92" cy="132" r="2.3"/></g><g stroke="#eef2f6" stroke-width="2.6" opacity="0.95" fill="none" stroke-linecap="round" stroke-linejoin="round"><rect x="160" y="30" width="70" height="112" rx="4"/></g><g stroke="#3fb0ec" stroke-width="1.2" opacity="0.55" stroke-linecap="round"><line x1="172" y1="80" x2="218" y2="80"/><line x1="172" y1="96" x2="214" y2="96"/><line x1="172" y1="112" x2="218" y2="112"/><line x1="172" y1="128" x2="210" y2="128"/></g><g stroke="#3fb0ec" stroke-width="1.2" opacity="0.6" fill="none"><rect x="168" y="76" width="8" height="8"/><rect x="168" y="92" width="8" height="8"/><rect x="168" y="108" width="8" height="8"/><rect x="168" y="124" width="8" height="8"/></g><g stroke="#3fb0ec" stroke-width="1.2" opacity="0.55" stroke-linecap="round"><line x1="172" y1="48" x2="214" y2="48"/></g><g stroke="#3fb0ec" stroke-width="1.45" opacity="0.22" fill="none" stroke-linecap="round"><path d="M92 66C130 66 130 80 160 80"/><path d="M92 84C130 84 130 96 160 96"/><path d="M92 102C130 102 130 112 160 112"/><path d="M92 120C130 120 130 128 160 128"/></g><g stroke="#57c4f2" stroke-width="2.2" fill="none" stroke-linecap="round" stroke-linejoin="round"><path class="drw" pathLength="100" d="M92 66C130 66 130 80 160 80" style="animation-delay:0.0s"/><path class="drw" pathLength="100" d="M92 84C130 84 130 96 160 96" style="animation-delay:0.5s"/><path class="drw" pathLength="100" d="M92 102C130 102 130 112 160 112" style="animation-delay:1.0s"/><path class="drw" pathLength="100" d="M92 120C130 120 130 128 160 128" style="animation-delay:1.5s"/></g><g stroke="#57c4f2" stroke-width="1.8" fill="none" stroke-linecap="round" stroke-linejoin="round"><polyline class="fl" points="169,80 172,83 176,77" style="animation-delay:0.7s"/><polyline class="fl" points="169,96 172,99 176,93" style="animation-delay:1.2s"/><polyline class="fl" points="169,128 172,131 176,125" style="animation-delay:2.2s"/></g><g stroke="#3fb0ec" stroke-width="1.6" opacity="0.8" fill="none" stroke-linejoin="round" stroke-linecap="round"><polygon points="262,62 297.0,40 332,62"/><line x1="258" y1="62" x2="336" y2="62"/><line x1="270" y1="70" x2="270" y2="116"/><line x1="288" y1="70" x2="288" y2="116"/><line x1="306" y1="70" x2="306" y2="116"/><line x1="324" y1="70" x2="324" y2="116"/><line x1="262" y1="116" x2="332" y2="116"/><line x1="256" y1="124" x2="338" y2="124"/></g><g fill="#3fb0ec" opacity="0.9"><circle cx="262" cy="62" r="2.3"/><circle cx="332" cy="62" r="2.3"/><circle cx="256" cy="124" r="2.3"/><circle cx="338" cy="124" r="2.3"/></g><g fill="url(#node)" filter="url(#glow)"><circle class="nd" cx="297.0" cy="40" r="5.2" style="animation-duration:3.6s;animation-delay:-1s"/></g><g stroke="#3fb0ec" stroke-width="1.45" opacity="0.22" fill="none" stroke-linecap="round"><line x1="236" y1="90" x2="256" y2="90"/></g><g stroke="#eef2f6" stroke-width="1.6" opacity="0.9" fill="none" stroke-linecap="round" stroke-linejoin="round"><line x1="184" y1="134" x2="204" y2="134"/></g><circle cx="214" cy="134" r="5.5" fill="#eef2f6"/>
<g stroke="#d9a24e" stroke-width="1.8" stroke-linecap="round"><line x1="169" y1="109" x2="175" y2="115"/><line x1="175" y1="109" x2="169" y2="115"/></g><text x="61" y="156" font-family="Consolas,SFMono-Regular,Menlo,monospace" font-size="9" font-weight="700" letter-spacing=".16em" fill="#8fb3cf" opacity="0.85" text-anchor="middle">THE CARRIER</text><text x="195" y="158" font-family="Consolas,SFMono-Regular,Menlo,monospace" font-size="8.5" font-weight="700" letter-spacing=".16em" fill="#eef2f6" opacity="0.8" text-anchor="middle">STANDARDS</text><text x="297" y="156" font-family="Consolas,SFMono-Regular,Menlo,monospace" font-size="9" font-weight="700" letter-spacing=".16em" fill="#8fb3cf" opacity="0.85" text-anchor="middle">THE DEPARTMENT</text>
</svg>
